<svg width="15" height="15" viewBox="0 0 15 15" fill="none" xmlns="http://www.w3.org/2000/svg">
<path fill-rule="evenodd" clip-rule="evenodd" d="M1.48954 7.01786C1.29836 7.01786 1.14338 7.17284 1.14338 7.36401C1.14338 7.55519 1.29836 7.71017 1.48954 7.71017L7.01781 7.71017L7.01781 13.2384C7.01781 13.4296 7.17279 13.5846 7.36396 13.5846C7.55514 13.5846 7.71011 13.4296 7.71011 13.2384L7.71012 7.71017H13.2384C13.4296 7.71017 13.5845 7.55519 13.5845 7.36401C13.5845 7.17284 13.4296 7.01786 13.2384 7.01786H7.71012L7.71011 1.48959C7.71011 1.29841 7.55514 1.14343 7.36396 1.14343C7.17279 1.14343 7.01781 1.29841 7.01781 1.48959L7.01781 7.01786L1.48954 7.01786Z" fill="#DBDBDB"/>
<path d="M1.14338 7.36401L1.64338 7.36401V7.36401L1.14338 7.36401ZM1.48954 7.01786L1.48954 6.51786L1.48954 7.01786ZM1.48954 7.71017L1.48954 8.21017L1.48954 8.21017L1.48954 7.71017ZM7.01781 7.71017H7.51781V7.21017H7.01781V7.71017ZM7.01781 13.2384L7.51781 13.2384L7.51781 13.2384L7.01781 13.2384ZM7.36396 13.5846L7.36396 13.0846L7.36396 13.5846ZM7.71011 13.2384L8.21011 13.2384L8.21012 13.2384L7.71011 13.2384ZM7.71012 7.71017V7.21017H7.21012V7.71017H7.71012ZM7.71012 7.01786H7.21012V7.51786H7.71012V7.01786ZM7.71011 1.48959L8.21012 1.48959L8.21011 1.48959L7.71011 1.48959ZM7.36396 1.14343L7.36396 1.64343L7.36396 1.14343ZM7.01781 1.48959L7.51781 1.48959L7.51781 1.48959L7.01781 1.48959ZM7.01781 7.01786V7.51786L7.51781 7.51786L7.51781 7.01786H7.01781ZM1.64338 7.36401C1.64338 7.44898 1.5745 7.51786 1.48954 7.51786L1.48954 6.51786C1.02222 6.51786 0.643382 6.8967 0.643382 7.36401L1.64338 7.36401ZM1.48954 7.21017C1.5745 7.21017 1.64338 7.27905 1.64338 7.36401L0.643382 7.36401C0.643382 7.83133 1.02222 8.21017 1.48954 8.21017L1.48954 7.21017ZM7.01781 7.21017L1.48954 7.21017L1.48954 8.21017L7.01781 8.21017L7.01781 7.21017ZM7.51781 13.2384L7.51781 7.71017H6.51781L6.51781 13.2384L7.51781 13.2384ZM7.36396 13.0846C7.44893 13.0846 7.51781 13.1535 7.51781 13.2384L6.51781 13.2384C6.51781 13.7058 6.89664 14.0846 7.36396 14.0846L7.36396 13.0846ZM7.21012 13.2384C7.21012 13.1535 7.27899 13.0846 7.36396 13.0846L7.36396 14.0846C7.83128 14.0846 8.21011 13.7058 8.21011 13.2384L7.21012 13.2384ZM7.21012 7.71017L7.21012 13.2384L8.21012 13.2384L8.21012 7.71017H7.21012ZM13.2384 7.21017H7.71012V8.21017H13.2384V7.21017ZM13.0845 7.36401C13.0845 7.27905 13.1534 7.21017 13.2384 7.21017V8.21017C13.7057 8.21017 14.0845 7.83133 14.0845 7.36401H13.0845ZM13.2384 7.51786C13.1534 7.51786 13.0845 7.44898 13.0845 7.36401H14.0845C14.0845 6.8967 13.7057 6.51786 13.2384 6.51786V7.51786ZM7.71012 7.51786H13.2384V6.51786H7.71012V7.51786ZM7.21012 1.48959L7.21012 7.01786H8.21012L8.21012 1.48959L7.21012 1.48959ZM7.36396 1.64343C7.27899 1.64343 7.21012 1.57455 7.21012 1.48959L8.21011 1.48959C8.21011 1.02227 7.83128 0.643434 7.36396 0.643434L7.36396 1.64343ZM7.51781 1.48959C7.51781 1.57455 7.44893 1.64343 7.36396 1.64343L7.36396 0.643434C6.89664 0.643434 6.51781 1.02227 6.51781 1.48959L7.51781 1.48959ZM7.51781 7.01786L7.51781 1.48959L6.51781 1.48959L6.51781 7.01786H7.51781ZM1.48954 7.51786L7.01781 7.51786V6.51786L1.48954 6.51786L1.48954 7.51786Z" fill="#DBDBDB"/>
</svg>
